<?xml version="1.0" encoding="UTF-8"?>
<svg version="1.1" viewBox="0 0 752 752" xmlns="http://www.w3.org/2000/svg">
 <path d="m191.02 154.01c-12.172 0-22.227 10.016-22.227 22.184-0.21875 10.082 15.016 10.082 14.801 0 0-4.2266 3.2031-7.3711 7.4297-7.3711h207.19c4.2266 0 7.3711 3.1445 7.3711 7.3711v355.21c0.21484 9.6484 14.582 9.6484 14.801 0v-111h14.812c12.426 0 22.227 9.7422 22.227 22.172v118.44c0 20.371 16.602 36.969 36.969 36.969 20.371 0 36.984-16.602 36.984-36.969v-133.24h14.812c9.8672 0 9.8672-14.801 0-14.801h-36.984v-14.801c12.328 0.007812 24.645 0 36.984 0 20.371 0 36.969-16.613 36.969-36.984v-51.785h7.4297c4.0859-0.015624 7.3867-3.3438 7.3711-7.4297v-29.613c-0.015625-4.0625-3.3086-7.3555-7.3711-7.3711h-22.172v-51.914c0-9.8672-14.801-9.8672-14.801 0v51.914h-59.227v-51.914c0-4.9336-3.6992-7.3984-7.3984-7.3984-3.6992 0-7.3984 2.4648-7.3984 7.3984v51.914h-22.172c-4.0859-0.015625-7.4141 3.2852-7.4297 7.3711v29.613c-0.015625 4.1094 3.3203 7.4453 7.4297 7.4297h111v51.785c0 12.426-9.8008 22.172-22.227 22.172h-44.414c-12.426 0-22.184-9.7422-22.184-22.172v-29.613c0-9.8672-14.801-9.8672-14.801 0v29.613c0 17.844 12.746 32.812 29.598 36.246v22.965c0.015625 4.0664 3.3203 7.3555 7.3867 7.3711h14.801v133.24c0 12.426-9.7578 22.172-22.184 22.172-12.426 0-22.227-9.7422-22.227-22.172v-118.44c0-20.371-16.602-36.969-36.969-36.969h-14.816v-229.42c0-12.172-10-22.184-22.172-22.184zm14.422 29.613c-4.168 0.37891-7.0586 3.5664-7.0547 7.3711v103.62c0.015625 4.0898 3.3398 7.3867 7.4297 7.3711h177.58c9.8672 0 9.8672-14.801 0-14.801h-170.19v-88.77h162.77v66.582c0 9.8672 14.812 9.8672 14.812 0v-74.012c-0.015625-4.0664-3.3203-7.3555-7.3867-7.3711zm-29.25 14.684c-3.6992 0-7.3984 2.4805-7.3984 7.4141v347.86l-7.3867-0.003906c-4.1133-0.015625-7.4531 3.3281-7.4297 7.4414v29.543c-0.015625 4.1094 3.3203 7.4453 7.4297 7.4297h266.4c4.0938-0.007813 7.4023-3.3359 7.3867-7.4297v-29.543c0.023437-4.0977-3.2891-7.4336-7.3867-7.4414h-244.22v-347.86c0-4.9336-3.6992-7.4141-7.3984-7.4141zm288.6 81.512h118.37v14.801h-118.37zm-155.62 51.77c-2.4375 0.054687-4.6914 1.3438-6.0117 3.3945l-66.582 103.62c-3.1836 4.9297 0.36328 11.426 6.2305 11.418h36.219l-6.5625 65.816c-0.70312 7.6641 9.3164 11.18 13.555 4.7539l66.641-103.57c3.1836-4.9297-0.36328-11.426-6.2305-11.418h-44.41c-9.8672 0-9.8672 14.801 0 14.801h30.855l-42.648 66.266 4.3633-43.328c0.4375-4.3633-2.9883-8.1445-7.3711-8.1367h-30.871l42.605-66.309-1.3594 13.875c-0.98828 9.8359 13.754 11.309 14.742 1.4727l4.4375-44.516c0.44922-4.4492-3.1328-8.2891-7.6016-8.1523zm-140.38 236.8h251.59v14.801l-251.59-0.003906z"/>
</svg>
