<?xml version="1.0" encoding="UTF-8"?>
<svg width="752pt" height="752pt" version="1.1" viewBox="0 0 752 752" xmlns="http://www.w3.org/2000/svg">
 <g>
  <path d="m220.61 405.6c-9.8125 0-19.227 3.8984-26.164 10.836s-10.836 16.348-10.836 26.16 3.8984 19.223 10.836 26.164c6.9375 6.9375 16.352 10.836 26.164 10.836s19.223-3.8984 26.16-10.836c6.9375-6.9414 10.836-16.352 10.836-26.164-0.011719-9.8086-3.9141-19.211-10.848-26.148-6.9375-6.9336-16.34-10.836-26.148-10.848zm0 59.199v-0.003906c-5.8906 0-11.535-2.3359-15.699-6.5-4.1641-4.1641-6.5-9.8125-6.5-15.699 0-5.8867 2.3359-11.531 6.5-15.695 4.1641-4.1641 9.8086-6.5039 15.699-6.5039 5.8867 0 11.531 2.3398 15.695 6.5039 4.1641 4.1641 6.5039 9.8086 6.5039 15.695 0 5.8867-2.3398 11.535-6.5039 15.699-4.1641 4.1641-9.8086 6.5-15.695 6.5z"/>
  <path d="m257.61 346.4h-73.996c-4.0859 0-7.3984 3.3125-7.3984 7.3984v29.602c0 1.9609 0.77734 3.8438 2.1641 5.2305 1.3906 1.3867 3.2734 2.168 5.2344 2.168h73.996c1.9648 0 3.8438-0.78125 5.2344-2.168 1.3867-1.3867 2.168-3.2695 2.168-5.2305v-29.602c0-1.9609-0.78125-3.8438-2.168-5.2305-1.3906-1.3867-3.2695-2.168-5.2344-2.168zm-7.3984 29.598h-59.199v-14.797h59.199z"/>
  <path d="m235.41 524h-14.797l13.32-17.758-0.003907-0.003906c2.4531-3.2695 1.7891-7.9062-1.4805-10.359-3.2656-2.4492-7.9062-1.7891-10.359 1.4805l-22.199 29.598v0.003906c-1.6797 2.2422-1.9492 5.2422-0.69531 7.7461 1.25 2.5078 3.8125 4.0898 6.6172 4.0898h14.801l-13.32 17.762c-2.4531 3.2695-1.7891 7.9062 1.4805 10.359 3.2695 2.4531 7.9062 1.7891 10.359-1.4805l22.199-29.598c1.6797-2.2422 1.9492-5.2422 0.69922-7.75-1.2539-2.5078-3.8164-4.0898-6.6211-4.0898z"/>
  <path d="m376 361.2c27.477 0 53.828-10.914 73.254-30.344 19.43-19.43 30.344-45.777 30.344-73.254 0-27.477-10.914-53.824-30.344-73.254-19.426-19.426-45.777-30.34-73.254-30.34-27.473 0-53.824 10.914-73.25 30.34-19.43 19.43-30.344 45.777-30.344 73.254 0.027344 27.469 10.953 53.801 30.375 73.223s45.754 30.344 73.219 30.375zm0-192.39c23.551 0 46.137 9.3555 62.789 26.008 16.652 16.652 26.008 39.238 26.008 62.789s-9.3555 46.137-26.008 62.789c-16.652 16.652-39.238 26.008-62.789 26.008s-46.133-9.3555-62.789-26.008c-16.652-16.652-26.008-39.238-26.008-62.789 0.027344-23.543 9.3906-46.113 26.039-62.758 16.645-16.648 39.215-26.012 62.758-26.039z"/>
  <path d="m353.8 257.61c0 5.8867 2.3398 11.535 6.5039 15.699 4.1641 4.1602 9.8086 6.5 15.695 6.5 5.2656-0.019532 10.348-1.9297 14.328-5.3789l24.152 13.957-2.9609 0.80078v-0.003906c-3.5742 0.97266-5.8789 4.4375-5.3945 8.1094 0.48438 3.6719 3.6094 6.4219 7.3125 6.4336 0.64453 0 1.2891-0.082031 1.9141-0.25391l20.215-5.418 0.003906 0.003907c1.8945-0.51172 3.5117-1.75 4.4922-3.4492s1.2461-3.7227 0.73828-5.6172l-5.418-20.215c-1.0703-3.9297-5.1172-6.2578-9.0508-5.2031-3.9336 1.0547-6.2773 5.0898-5.2461 9.0273l0.80078 2.9609-24.117-13.926c0.26953-1.3281 0.41406-2.6758 0.42969-4.0273-0.019531-4.5742-1.4492-9.0312-4.0977-12.762-2.6484-3.7305-6.3867-6.5508-10.699-8.0742v-13.098l2.168 2.168c2.9023 2.8047 7.5195 2.7617 10.371-0.089844 2.8555-2.8555 2.8945-7.4688 0.089844-10.375l-14.801-14.801 0.003906 0.003906c-2.8906-2.8906-7.5742-2.8906-10.465 0l-14.801 14.801v-0.003906c-2.8008 2.9062-2.7617 7.5195 0.09375 10.375 2.8516 2.8516 7.4688 2.8945 10.371 0.089844l2.168-2.168v13.098c-4.3125 1.5234-8.0508 4.3438-10.699 8.0742-2.6484 3.7305-4.082 8.1875-4.1016 12.762zm22.199 7.3984v0.003906c-2.9922 0-5.6914-1.8047-6.8359-4.5703-1.1445-2.7656-0.51172-5.9492 1.6055-8.0625 2.1172-2.1172 5.2969-2.75 8.0625-1.6055s4.5703 3.8438 4.5703 6.8359c0 1.9648-0.78125 3.8438-2.168 5.2344-1.3867 1.3867-3.2695 2.168-5.2344 2.168z"/>
  <path d="m464.8 509.2c-7.8477 0-15.379 3.1211-20.93 8.6719-5.5508 5.5508-8.668 13.078-8.668 20.926 0 7.8516 3.1172 15.379 8.668 20.93 5.5508 5.5508 13.082 8.6719 20.93 8.6719 7.8516 0 15.379-3.1211 20.93-8.6719 5.5508-5.5508 8.6719-13.078 8.6719-20.93 0-7.8477-3.1211-15.375-8.6719-20.926-5.5508-5.5508-13.078-8.6719-20.93-8.6719zm0 44.398c-3.9258 0-7.6875-1.5586-10.465-4.3359-2.7734-2.7734-4.332-6.5391-4.332-10.465 0-3.9219 1.5586-7.6875 4.332-10.461 2.7773-2.7773 6.5391-4.3359 10.465-4.3359s7.6914 1.5586 10.465 4.3359c2.7773 2.7734 4.3359 6.5391 4.3359 10.461 0 3.9258-1.5586 7.6914-4.3359 10.465-2.7734 2.7773-6.5391 4.3359-10.465 4.3359z"/>
  <path d="m595.03 357.01c-28.949-21.785-65.852-30.102-101.35-22.84s-66.172 29.398-84.242 60.801l-16.57 29.027c-1.9297 3.3984-4.7305 6.2266-8.1094 8.1953-3.3789 1.9648-7.2188 3.0039-11.129 3.0078h-19.832c-5.8867 0-11.531 2.3398-15.695 6.5-4.1641 4.1641-6.5039 9.8125-6.5039 15.699v73.996c0.027344 13.211 7.0742 25.414 18.5 32.043 1.7031 1.082 3.7734 1.4219 5.7305 0.94141 1.9609-0.48047 3.6367-1.7383 4.6484-3.4844 1.0078-1.7461 1.2617-3.8281 0.69922-5.7656s-1.8906-3.5586-3.6758-4.4961c-6.8594-3.9844-11.082-11.309-11.102-19.238v-73.996c0-4.0859 3.3125-7.3984 7.3984-7.3984h19.832c6.5234-0.007812 12.926-1.7383 18.562-5.0156 5.6367-3.2812 10.309-7.9922 13.539-13.656l16.574-29.008c15.645-27.16 41.984-46.492 72.586-53.273 30.602-6.7812 62.645-0.39062 88.297 17.617v8.1406-0.003907c-23.895-17.676-54.062-24.621-83.285-19.184-29.223 5.4414-54.871 22.781-70.805 47.875l-22.348 35.148c-1.4414 2.2773-1.5312 5.1602-0.23047 7.5234 1.2969 2.3633 3.7812 3.832 6.4766 3.8359h170.19v103.59h-61.141c5.0625-19.566-0.19922-40.367-13.957-55.172-13.762-14.809-34.121-21.578-54.004-17.957-19.887 3.6211-36.555 17.129-44.215 35.836-7.6602 18.703-5.2539 40.023 6.3789 56.551 11.637 16.527 30.895 25.984 51.09 25.082 20.191-0.90234 38.531-12.039 48.645-29.539h74.605c1.9609 0 3.8438-0.78125 5.2305-2.168 1.3867-1.3867 2.168-3.2695 2.168-5.2344v-198.09c-0.007813-2.3203-1.1016-4.5039-2.9609-5.8945zm-130.23 226.18c-11.773 0-23.066-4.6758-31.395-13.004-8.3242-8.3242-13.004-19.617-13.004-31.395 0-11.773 4.6797-23.066 13.004-31.391 8.3281-8.3281 19.621-13.004 31.395-13.004 11.777 0 23.07 4.6758 31.395 13.004 8.3281 8.3242 13.004 19.617 13.004 31.391-0.011718 11.773-4.6914 23.059-13.016 31.383-8.3242 8.3242-19.609 13.004-31.383 13.016zm59.199-214.38v66.391h-66.598v-42.488c16.996-15.539 39.203-24.141 62.23-24.109 1.4648 0 2.8867 0.14063 4.3672 0.20703zm-82.41 42.621c0.3125-0.48828 0.69531-0.90234 1.0156-1.3828l-0.003906 25.152h-16.121zm97.207 23.77v-64.555c16.676 3.4766 32.051 11.535 44.398 23.273v41.281z"/>
  <path d="m405.6 516.6v-14.801c-0.023437-1.7852-0.25781-3.5586-0.70312-5.2852 4.7383-3.8711 7.6562-9.5391 8.0508-15.645 0.39453-6.1094-1.7656-12.105-5.9648-16.555-4.2031-4.4531-10.062-6.957-16.184-6.9141h-14.801c-6.1133-0.03125-11.969 2.4805-16.16 6.9297-4.1914 4.4531-6.3477 10.449-5.9492 16.551 0.39844 6.1016 3.3164 11.766 8.0508 15.633-0.45703 1.7266-0.70703 3.5-0.73828 5.2852v14.801c0.019531 4.5742 1.4492 9.0312 4.0977 12.762 2.6523 3.7305 6.3867 6.5508 10.699 8.0742v16.16c0 10.574-5.6406 20.348-14.797 25.633-9.1602 5.2891-20.441 5.2891-29.602 0-9.1562-5.2852-14.797-15.059-14.797-25.633v-96.195c0-5.8867-2.3398-11.535-6.5039-15.699-4.1602-4.1602-9.8086-6.5-15.695-6.5h-7.4023v-96.195c0-5.8867-2.3359-11.535-6.5-15.699-4.1641-4.1602-9.8086-6.5-15.695-6.5h-88.797c-5.8906 0-11.535 2.3398-15.699 6.5-4.1641 4.1641-6.5 9.8125-6.5 15.699v251.59c0 1.9609 0.77734 3.8438 2.1641 5.2305 1.3906 1.3867 3.2734 2.168 5.2344 2.168h118.39c1.9648 0 3.8438-0.78125 5.2344-2.168 1.3867-1.3867 2.1641-3.2695 2.1641-5.2305v-140.59h7.4023c1.9609 0 3.8438 0.77734 5.2305 2.1641 1.3906 1.3906 2.168 3.2734 2.168 5.2344v96.195c0 15.863 8.4609 30.52 22.199 38.449 13.738 7.9336 30.66 7.9336 44.398 0 13.738-7.9297 22.199-22.586 22.199-38.449v-16.16c4.3125-1.5234 8.0508-4.3438 10.699-8.0742s4.082-8.1875 4.1016-12.762zm-133.2 66.594h-103.6v-244.19c0-4.0859 3.3125-7.4023 7.4023-7.4023h88.797c1.9609 0 3.8438 0.78125 5.2305 2.168 1.3867 1.3906 2.168 3.2695 2.168 5.2344zm103.59-110.99h14.801c2.8125-0.023438 5.3906 1.5664 6.6289 4.0898 1.2422 2.5234 0.92578 5.5352-0.8125 7.7461-3.7969-2.8984-8.4414-4.4648-13.215-4.4648-4.7773 0-9.4219 1.5664-13.219 4.4648-1.7344-2.2109-2.0508-5.2227-0.8125-7.7461 1.2422-2.5234 3.8164-4.1133 6.6289-4.0898zm14.801 44.398c0 4.0859-3.3125 7.3984-7.3984 7.3984-4.0898 0-7.4023-3.3125-7.4023-7.3984v-14.801c0-4.0859 3.3125-7.3984 7.4023-7.3984 4.0859 0 7.3984 3.3125 7.3984 7.3984z"/>
 </g>
</svg>
