<?xml version="1.0" encoding="UTF-8"?>
<svg width="752pt" height="752pt" version="1.1" viewBox="0 0 752 752" xmlns="http://www.w3.org/2000/svg">
 <g>
  <path d="m311.27 420.01h-15.855l7.5938-15.203 4.207 7.9375c0.074218 0.14453 0.14062 0.26172 0.20703 0.38281z"/>
  <path d="m308.85 419.09h-12.98l11.605-23.141 1.3047 16.547c0.050781 0.625 0.074218 1.2891 0.074218 1.9688z"/>
  <path d="m487.71 420.01h-62.516l1.3672-5.7031c3.3242-13.859 15.617-23.547 29.891-23.547 14.277 0 26.57 9.6836 29.891 23.547zm-49.895-9.25h37.27c-3.7461-6.5352-10.758-10.75-18.633-10.75s-14.887 4.2148-18.637 10.75z"/>
  <path d="m521.92 418.44h-12.668v-4.625c0-0.42578 0.015625-0.85547 0.035156-1.2812l0.9375-17.383z"/>
  <path d="m522.72 420.01h-15.867l3.8203-6.8711c0.066407-0.11719 0.125-0.23047 0.19141-0.35156l4.1562-8.0469z"/>
  <path d="m347.02 475.11h124.06v9.25h-124.06z"/>
  <path d="m313.04 556.23h-32.969c-7.6523 0-13.883-6.2305-13.883-13.883v-21.414l7.0938 4.4805c1.6992 1.0742 3.6641 1.6367 5.6836 1.6367h25.332c0.80078 0 1.5742-0.25 2.2188-0.72266l20.41-14.777v30.789c-0.003906 7.6602-6.2344 13.891-13.887 13.891zm-37.605-20.238v6.3555c0 2.5547 2.082 4.6328 4.6328 4.6328h32.969c2.5547 0 4.6328-2.082 4.6328-4.6328l0.003907-12.668-5.7383 4.1523c-2.2422 1.6172-4.8828 2.4727-7.6406 2.4727h-25.332c-1.1875 0.003906-2.3711-0.10547-3.5273-0.3125z"/>
  <path d="m538.05 556.23h-32.969c-7.6602 0-13.887-6.2305-13.887-13.883v-30.074l20.316 14.707c0.66406 0.48047 1.4805 0.73047 2.2969 0.71094l25.34-0.62891c2.0273 0 3.9922-0.57031 5.6875-1.6367l7.0938-4.4805v21.414c0.003907 7.6406-6.2266 13.871-13.879 13.871zm-37.609-25.848v11.965c0 2.5547 2.082 4.6328 4.6406 4.6328h32.969c2.5586 0 4.6328-2.082 4.6328-4.6328v-6.3555c-1.1367 0.20312-2.3047 0.30859-3.4727 0.31641l-25.16 0.62891c-2.832 0.078125-5.6602-0.79688-7.9648-2.4648z"/>
  <path d="m483.61 463.64-6.3594-6.7148c13.426-12.715 24.664-27.426 33.395-43.727l8.1523 4.3672c-9.1992 17.18-21.039 32.684-35.188 46.074z"/>
  <path d="m519.03 417.12-8.1133-4.4414c0.070313-0.125 0.14063-0.25391 0.20703-0.38672l8.1719 4.332c-0.089844 0.16797-0.17578 0.33594-0.26562 0.49609z"/>
  <path d="m334.5 463.64c-14.148-13.398-25.988-28.902-35.191-46.078l8.1523-4.3672c8.7305 16.301 19.969 31.016 33.395 43.727z"/>
  <path d="m298.81 416.64 8.168-4.3398 0.23828 0.44531-8.168 4.3398z"/>
  <path d="m541.09 418.44h-31.836v-4.625c0-0.42578 0.007813-0.83984 0.03125-1.2773 0.65625-13.809 12.027-24.645 25.891-24.645h10.609c4.5352 0 8.2266 3.6953 8.2266 8.2305v9.3945c0 7.1289-5.7969 12.922-12.922 12.922zm-21.941-9.2461h21.941c2.0273 0 3.6719-1.6445 3.6719-3.6719v-8.375h-9.5859c-7.5898-0.003907-14.023 5.0508-16.027 12.047z"/>
  <path d="m308.85 419.09h-31.836c-7.1211 0-12.918-5.793-12.918-12.922v-9.3984c0-4.5352 3.6914-8.2266 8.2266-8.2266h10.609c13.496 0 24.844 10.531 25.844 23.977 0.046874 0.60547 0.074218 1.2656 0.074218 1.9453zm-35.504-21.297v8.375c0 2.0273 1.6445 3.6719 3.668 3.6719h21.93c-2.0273-6.9805-8.5039-12.047-16.012-12.047z"/>
  <path d="m487.71 420.01h-62.516l1.3672-5.7031c3.3242-13.859 15.617-23.547 29.891-23.547 14.277 0 26.57 9.6836 29.891 23.547zm-49.895-9.25h37.27c-3.7461-6.5352-10.758-10.75-18.633-10.75s-14.887 4.2148-18.637 10.75z"/>
  <path d="m470.75 325.41c-0.95312 0-1.9102-0.27344-2.75-0.82812-1.9922-1.3125-2.7734-3.8633-1.8672-6.0625l18.051-44.332h-32.301c-2.0156 0-3.8242-1.2031-4.6055-3.0625s-0.37109-3.9922 1.0391-5.4297l66.773-68.418c1.6562-1.7109 4.3203-2.0039 6.3203-0.67969 1.9922 1.3125 2.7734 3.8633 1.8672 6.0625l-18.051 44.332h32.305c2.0156 0 3.8242 1.2031 4.6055 3.0625 0.78125 1.8594 0.375 3.9922-1.0391 5.4297l-66.773 68.418c-0.96094 0.99609-2.2617 1.5078-3.5742 1.5078zm-3.0352-7.9766c-0.007813 0.007812-0.015625 0.015625-0.023438 0.023437zm-5.7344-52.496h35.953l-15.043 36.949 44.551-45.641-35.957-0.003906 15.043-36.949zm-7.0391 7.2109-0.015625 0.015624c0.007813-0.007812 0.011719-0.011718 0.015625-0.015624zm79.547-23.129c-0.003906 0.003907-0.007812 0.007813-0.007812 0.007813zm-12.762-45.301-0.027343 0.027344c0.007812-0.007813 0.015625-0.019532 0.027343-0.027344z"/>
  <path d="m517.44 420.01h-39.238l-0.85156-3.5469c-2.3164-9.6836-10.91-16.449-20.891-16.449s-18.574 6.7656-20.898 16.449l-0.85156 3.5469h-134.04l-1.3242-2.3672c-0.10156-0.17969-0.19922-0.35938-0.29297-0.54297l-1.1289-2.1289 1.5234-3.0234v-0.007812l16.199-32.199c8.6484-17.199 25.977-27.883 45.227-27.883h96.352c19.25 0 36.574 10.684 45.223 27.883l17.707 35.195-1.082 2.0938c-0.10547 0.20312-0.20703 0.40234-0.32031 0.60156zm-32.164-9.25h22.441l-13.52-26.855c-7.0664-14.059-21.234-22.793-36.961-22.793h-96.355c-15.734 0-29.895 8.7305-36.965 22.785l-13.516 26.859h117.24c4.4219-11.938 15.793-19.996 28.816-19.996 13.027 0 24.398 8.0586 28.816 20z"/>
  <path d="m513.7 536.95c-2.7148 0-5.4102-0.87109-7.6172-2.4688l-18.91-13.688-156.26-0.69531-18.98 13.742c-2.2422 1.6172-4.8828 2.4727-7.6406 2.4727h-25.332c-3.7734 0-7.4453-1.0586-10.625-3.0703-3.6641-2.3047-6.5312-5.8125-8.0547-9.8789l-1.0078-2.6953c-1.2109-3.2344-2.0117-6.6289-2.3828-10.082-0.15234-1.4297-0.23438-2.8984-0.23438-4.3516v-38.211c0-18.273 9.25-34.969 24.742-44.652l20.168-12.613h214.97l20.164 12.613c15.492 9.6875 24.746 26.379 24.746 44.652v38.211c0 4.957-0.88281 9.8203-2.6211 14.449l-1 2.6797c-1.5234 4.0664-4.3828 7.5742-8.0625 9.8906-3.1523 1.9922-6.8086 3.0508-10.559 3.0664l-25.16 0.62891c-0.10938-0.003906-0.22656 0-0.34375 0zm-185.76-26.113 162.25 0.72266 21.316 15.43c0.66406 0.48047 1.4805 0.73047 2.2969 0.71094l25.34-0.62891c2.0273 0 3.9922-0.57031 5.6875-1.6367 2.0117-1.2617 3.5039-3.0977 4.3281-5.3047l1.0039-2.6875c1.3516-3.5938 2.0352-7.3594 2.0352-11.203v-38.211c0-15.062-7.625-28.82-20.398-36.809l-17.918-11.207-209.66 0.003907-17.922 11.207c-12.773 7.9844-20.395 21.746-20.395 36.809v38.211c0 1.125 0.058594 2.2578 0.17969 3.3672 0.28516 2.6914 0.90625 5.3203 1.8438 7.8242l1.0039 2.6914c0.82812 2.207 2.3281 4.0391 4.3242 5.2969 1.707 1.0781 3.6719 1.6445 5.6914 1.6445h25.332c0.80078 0 1.5742-0.25 2.2188-0.72266zm198.2-18.719h-36.051v-4.625c0-16.109 13.105-29.215 29.215-29.215h12.254c4.8477 0 8.7891 3.9414 8.7891 8.7891v10.852c0 7.8242-6.375 14.199-14.207 14.199zm-26.262-9.25h26.258c2.7344 0 4.957-2.2188 4.957-4.9531v-10.387h-11.793c-9.4141 0-17.332 6.5508-19.422 15.34zm-171.85 9.25h-36.051c-7.8281 0-14.203-6.3711-14.203-14.203v-10.852c0-4.8477 3.9414-8.7891 8.7812-8.7891h12.254c16.109 0 29.215 13.105 29.215 29.215zm-41.004-24.59v10.387c0 2.7344 2.2188 4.9531 4.9531 4.9531h26.258c-2.0898-8.7891-10.008-15.34-19.426-15.34z"/>
  <path d="m266.64 514.72h-51.18v-271.15c0-10.762 8.7539-19.516 19.516-19.516h139.99c10.762 0 19.516 8.7539 19.516 19.516l0.003906 117.54h-33.609c-15.734 0-29.895 8.7305-36.965 22.785l-15.074 29.953c0.003906 0.20312 0.003906 0.40625 0.003906 0.60938v1.2109l2.418 4.332-7.0391 0.007812-17.922 11.207c-12.773 7.9844-20.395 21.746-20.395 36.809v38.211c0 1.125 0.058594 2.2578 0.17969 3.3672zm-41.93-9.25h31.945v-37.453c0-18.273 9.25-34.969 24.742-44.652l17.953-11.223 0.10156-0.19531v-0.007813l16.199-32.199c8.6484-17.199 25.977-27.883 45.227-27.883h24.359v-108.29c0-5.6602-4.6055-10.266-10.266-10.266h-139.99c-5.6602 0-10.266 4.6055-10.266 10.266z"/>
  <path d="m419.39 556.24h-228.84v-31.25c0-10.762 8.7539-19.516 19.516-19.516h55.586l0.4375 4.1406c0.28125 2.6797 0.90625 5.3086 1.8438 7.8164l1.0078 2.6914c0.82812 2.207 2.3281 4.0391 4.3242 5.2969 1.707 1.0781 3.6719 1.6445 5.6914 1.6445h25.332c0.80078 0 1.5742-0.25 2.2188-0.72266l21.426-15.512 85.941 0.38281 1.3867 1.7656c2.6992 3.4531 4.1289 7.6094 4.1289 12.012zm-219.59-9.25h210.35v-22c0-1.6055-0.35938-3.1484-1.0547-4.5469l-78.18-0.34766-18.98 13.742c-2.2422 1.6172-4.8828 2.4727-7.6406 2.4727h-25.332c-3.7734 0-7.4453-1.0586-10.625-3.0703-3.6641-2.3047-6.5312-5.8125-8.0547-9.8789l-1.0078-2.6953c-0.72656-1.9336-1.3047-3.9219-1.7305-5.9492l-47.477 0.003906c-5.6602 0-10.266 4.6055-10.266 10.266z"/>
  <path d="m350.93 313.34h-91.918c-4.4258 0-8.0273-3.6016-8.0273-8.0273v-36.078c0-4.4258 3.6016-8.0273 8.0273-8.0273l91.918-0.003907c4.4258 0 8.0273 3.6016 8.0273 8.0273v36.078c0.003906 4.4297-3.6016 8.0312-8.0273 8.0312zm-90.695-9.25h89.477v-33.637h-89.477z"/>
  <path d="m327.54 282.65h9.7344v9.25h-9.7344z"/>
  <path d="m310.23 282.65h9.7344v9.25h-9.7344z"/>
  <path d="m272.68 282.65h29.988v9.25h-29.988z"/>
 </g>
</svg>
