<?xml version="1.0" encoding="UTF-8"?>
<svg width="752pt" height="752pt" version="1.1" viewBox="0 0 752 752" xmlns="http://www.w3.org/2000/svg">
 <g>
  <path d="m425.34 329.63h-14.684c-11.512 0-20.875-9.3672-20.875-20.875v-25.797c0-11.512 9.3672-20.875 20.875-20.875h14.684zm-14.684-58.301c-6.4102 0-11.625 5.2148-11.625 11.625v25.797c0 6.4102 5.2148 11.625 11.625 11.625h5.4336v-49.047z"/>
  <path d="m399.03 314.01h-35.395c-9.457 0-17.148-7.6953-17.148-17.152v-2.0156c0-9.457 7.6914-17.148 17.148-17.148h35.395zm-35.395-27.07c-4.3555 0-7.8984 3.543-7.8984 7.8984v2.0156c0 4.3555 3.543 7.9023 7.8984 7.9023h26.145v-17.82z"/>
  <path d="m420.71 306.7h19.387v9.25h-19.387z"/>
  <path d="m420.71 275.76h19.387v9.25h-19.387z"/>
  <path d="m343 379.86h-9.25v-12.43c0-7.25-5.8984-13.148-13.148-13.148h-23.477c-8.5547 0-16.621-3.3125-22.711-9.3242-6.0898-6.0117-9.5-14.035-9.6055-22.594-0.10938-8.707 3.1992-16.918 9.3203-23.109 6.1172-6.1953 14.285-9.6094 23-9.6094h53.031v9.25l-53.035-0.003906c-6.2188 0-12.047 2.4375-16.418 6.8594-4.3672 4.4219-6.7305 10.281-6.6523 16.496 0.15625 12.566 10.508 22.785 23.07 22.785h23.477c12.348 0 22.398 10.051 22.398 22.398z"/>
  <path d="m322.13 426.94h-15.871l7.6484-15.301 4.1719 8.1016c0.050781 0.10156 0.10547 0.19922 0.16016 0.29688z"/>
  <path d="m319.63 426.06h-12.953l11.535-22.93 1.3516 16.391c0.046875 0.58203 0.070313 1.207 0.070313 1.9141z"/>
  <path d="m491.05 426.94h-60.387l1.3672-5.7031c3.2031-13.371 15.062-22.707 28.828-22.707 13.773 0.003906 25.621 9.3438 28.82 22.707zm-47.711-9.2461h35.031c-3.5938-6.0352-10.156-9.9062-17.52-9.9102-7.3516-0.003906-13.914 3.8711-17.512 9.9102z"/>
  <path d="m516.4 425.45h-5.1484v-4.625c0-0.42187 0.015625-0.83594 0.035156-1.25l0.97656-17.363 11.617 23.234z"/>
  <path d="m524.67 426.94h-15.781l3.7227-6.8359c0.074219-0.14062 0.14844-0.27344 0.22266-0.41797l4.1836-7.875z"/>
  <path d="m356.01 479.34h118.86v9.25h-118.86z"/>
  <path d="m323.45 557.46h-31.586c-7.4414 0-13.496-6.0547-13.496-13.496v-20.863l7.0938 4.4805c1.5938 1.0078 3.4453 1.5391 5.3398 1.5391h24.266c0.72656 0 1.418-0.22656 2.0117-0.65234l19.863-14.379v29.871c0.003906 7.4453-6.0508 13.5-13.492 13.5zm-35.832-19.352v5.8555c0 2.3398 1.9062 4.2461 4.2461 4.2461h31.586c2.3398 0 4.2461-1.9062 4.2461-4.2461v-11.762l-5.1953 3.7617c-2.1797 1.5781-4.75 2.4102-7.4336 2.4102h-24.266c-1.0703 0-2.1328-0.089844-3.1836-0.26562z"/>
  <path d="m539.03 557.46h-31.586c-7.4453 0-13.5-6.0547-13.5-13.496v-29.195l19.77 14.316c0.60156 0.43359 1.3359 0.65625 2.0859 0.64453l24.27-0.60156c1.9141-0.003906 3.7656-0.53516 5.3516-1.543l7.0977-4.5v20.875c0.003906 7.4453-6.0469 13.5-13.488 13.5zm-35.84-24.574v11.078c0 2.3398 1.9062 4.2461 4.25 4.2461h31.586c2.3398 0 4.2461-1.9062 4.2461-4.2461v-5.8555c-1.0273 0.17188-2.0781 0.26172-3.1328 0.26953l-24.105 0.60156c-2.7578 0.066407-5.5117-0.77734-7.7461-2.3984z"/>
  <path d="m487.01 468.69-6.3594-6.7148c12.852-12.168 23.605-26.25 31.957-41.844l8.1523 4.3672c-8.8242 16.473-20.184 31.34-33.75 44.191z"/>
  <path d="m521 424.04-8.1562-4.3555 0.19922-0.36719 8.2148 4.25c-0.058593 0.12109-0.125 0.23438-0.19141 0.35156z"/>
  <path d="m343.88 468.69c-13.574-12.852-24.93-27.723-33.75-44.195l8.1523-4.3672c8.3516 15.598 19.105 29.676 31.957 41.844z"/>
  <path d="m309.85 423.98-0.070312-0.13281c-0.050781-0.097656-0.10547-0.19531-0.15625-0.29297l8.2227-4.2422 0.070313 0.13281c0.050781 0.097656 0.10547 0.19531 0.15625 0.29297z"/>
  <path d="m541.95 425.45h-30.695v-4.625c0-0.42187 0.015625-0.83594 0.035156-1.25 0.63281-13.316 11.613-23.781 24.992-23.781h10.164c4.4531 0 8.0742 3.625 8.0742 8.0781v9c0.003906 6.9375-5.6367 12.578-12.57 12.578zm-20.762-9.25h20.758c1.832 0 3.3242-1.4922 3.3242-3.3242v-7.8281h-8.9922c-7.0898-0.003907-13.113 4.6641-15.09 11.152z"/>
  <path d="m319.63 426.07h-30.695c-6.9336 0-12.57-5.6406-12.57-12.574v-9.0039c0-4.4531 3.6211-8.0742 8.0742-8.0742h10.164c13.027 0 23.988 10.172 24.949 23.148 0.046874 0.57812 0.074218 1.2227 0.074218 1.8828zm-34.016-20.406v7.8281c0 1.832 1.4883 3.3242 3.3203 3.3242h20.746c-1.9961-6.4805-8.0625-11.156-15.078-11.156z"/>
  <path d="m491.05 426.94h-60.387l1.3672-5.7031c3.2031-13.371 15.062-22.707 28.828-22.707 13.773 0.003906 25.621 9.3438 28.82 22.707zm-47.711-9.2461h35.031c-3.5938-6.0352-10.156-9.9062-17.52-9.9102-7.3516-0.003906-13.914 3.8711-17.512 9.9102z"/>
  <path d="m519.35 426.95h-37.809l-0.85156-3.5469c-2.2031-9.1953-10.355-15.613-19.828-15.613s-17.629 6.418-19.836 15.613l-0.85156 3.5469h-128.71l-2.7344-5.0078 1.5117-2.9648v-0.003906l15.535-30.883c8.3164-16.543 24.988-26.82 43.5-26.82h92.312c18.512 0 35.18 10.277 43.496 26.82l15.488 30.77v0.003906l1.5117 2.9883-1.0391 2.082c-0.12109 0.24219-0.24219 0.46875-0.375 0.70312zm-30.75-9.25h21.047l-12.812-25.449c-6.7383-13.402-20.238-21.727-35.238-21.727h-92.312c-15 0-28.504 8.3242-35.242 21.723l-12.805 25.453h111.87c4.2969-11.445 15.23-19.16 27.746-19.16 12.52 0 23.453 7.7109 27.746 19.16z"/>
  <path d="m515.71 538.99c-2.6484 0-5.2773-0.84766-7.4219-2.4062l-18.059-13.078-149.58-0.66406-18.129 13.125c-2.1797 1.5781-4.75 2.4102-7.4375 2.4102h-24.266c-3.6484 0-7.207-1.0273-10.281-2.9688-3.5977-2.2578-6.3008-5.5664-7.7969-9.5586l-0.96484-2.5859c-1.1719-3.1211-1.9414-6.3867-2.293-9.7109-0.14844-1.3555-0.22656-2.7695-0.22656-4.1914l-0.003906-36.605c0-17.578 8.8945-33.637 23.793-42.945l19.367-12.113h206.07l19.363 12.113c14.906 9.3203 23.801 25.375 23.789 42.949v36.605c0 4.7734-0.85156 9.4531-2.5234 13.91l-0.95703 2.5664c-1.4688 3.9375-4.2422 7.3359-7.8086 9.5742-3.043 1.9297-6.5781 2.957-10.215 2.9648l-24.102 0.60156c-0.10156 0.003906-0.21484 0.007812-0.32031 0.007812zm-178.05-25.406 155.57 0.69531 20.469 14.824c0.60156 0.43359 1.3477 0.66016 2.0859 0.64453l24.277-0.60156c1.9062 0 3.75-0.53125 5.3398-1.5391 1.8945-1.1914 3.3008-2.9141 4.0781-4.9883l0.96094-2.5742c1.2852-3.4219 1.9375-7.0117 1.9375-10.664v-36.609c0.007813-14.371-7.2617-27.488-19.441-35.105l-17.117-10.707h-200.76l-17.121 10.707c-12.176 7.6133-19.449 20.734-19.449 35.102v36.609c0 1.082 0.054687 2.1602 0.17187 3.1992 0.27344 2.5625 0.85938 5.0625 1.7578 7.4609l0.96094 2.582c0.77734 2.0703 2.1836 3.7969 4.0664 4.9766 1.6094 1.0156 3.4531 1.5508 5.3555 1.5508h24.266c0.72656 0 1.418-0.22656 2.0117-0.65234zm189.95-17.559h-34.73v-4.625c0-15.539 12.645-28.184 28.184-28.184h11.742c4.75 0 8.6133 3.8633 8.6133 8.6133v10.398c-0.003906 7.6055-6.1992 13.797-13.809 13.797zm-24.91-9.25h24.914c2.5117 0 4.5547-2.0391 4.5547-4.5508v-9.7578h-11.105c-8.8516 0-16.297 6.0977-18.363 14.309zm-164.7 9.25h-34.73c-7.6094 0-13.801-6.1914-13.801-13.801v-10.395c0-4.75 3.8633-8.6133 8.6055-8.6133h11.742c15.539 0 28.184 12.645 28.184 28.184zm-39.281-23.559v9.7578c0 2.5117 2.0391 4.5508 4.5508 4.5508h24.91c-2.0664-8.2148-9.5195-14.309-18.359-14.309z"/>
  <path d="m285.5 538.1h-69.652v-250.37l3.2656-1.9336 156.88-91.98 160.15 93.91v112.69h-9.25v-107.41l-150.9-88.477-150.9 88.473v235.84h60.402z"/>
  <path d="m188.22 303.93 29.926-17.547 4.6797 7.9805-29.926 17.547z"/>
  <path d="m529.21 294.32 4.6797-7.9805 29.926 17.547-4.6797 7.9805z"/>
  <path d="m499 276.66-47.359-27.773v-43.203h47.359zm-38.109-33.074 28.859 16.922v-45.578h-28.859z"/>
 </g>
</svg>
