<?xml version="1.0" encoding="UTF-8"?>
<svg width="752pt" height="752pt" version="1.1" viewBox="0 0 752 752" xmlns="http://www.w3.org/2000/svg">
 <path d="m167.67 308.57h-0.003907c-4.7227 0-8.5469 3.8281-8.5469 8.5508v0.007812c0 4.7227 3.8281 8.5508 8.5508 8.5508 4.7227 0 8.5508-3.8281 8.5508-8.5508v-0.007812c0-4.7227-3.8242-8.5508-8.5469-8.5508zm33.035-0.003906h-0.21484c-4.7227 0-8.5156 3.832-8.5156 8.5547v0.007812c0 4.7227 3.8281 8.5508 8.5508 8.5508h43.801c4.7227 0 8.5508-3.8281 8.5508-8.5508s-3.8281-8.5508-8.5508-8.5508zm-39.648 66.516h-0.13281c-4.7227 0-8.5234 3.8281-8.5234 8.5508v0.003907c0 4.7227 3.8281 8.5547 8.5508 8.5547h43.801c4.7227 0 8.5508-3.8281 8.5508-8.5508s-3.8281-8.5508-8.5508-8.5508zm223.04-31.508h-0.007812c-2.9531 0-5.8242 1.5352-7.4102 4.2773l-22.254 38.516c-0.77344 1.332-1.3789 2.9297-1.3789 4.6484v0.007813c0 4.7227 3.8281 8.5508 8.5508 8.5508h18.289l-15.027 26.035c-2.3633 4.0898-0.96094 9.3203 3.1289 11.68 1.3477 0.77734 2.8164 1.1484 4.2695 1.1484 2.9531 0 5.8281-1.5352 7.4141-4.2773l22.324-38.711c0.77344-1.2852 1.2227-2.7773 1.2305-4.3789v-0.046874c0-4.7227-3.8281-8.5508-8.5508-8.5508h-18.23l15.047-26.07c2.3594-4.0898 0.96094-9.3203-3.1289-11.68-1.3477-0.77734-2.8125-1.1484-4.2656-1.1484zm66.797-10.496h0.023437c9.5156 0 17.207 7.7227 17.207 17.238v81.367c0 9.5117-7.6992 17.234-17.215 17.234l-162.55 0.007812c-9.5117-0.007812-17.215-7.7305-17.215-17.242v-81.367c0-9.5156 7.7031-17.238 17.215-17.238zm-269.53 102.57h-0.21094c-4.7188 0-8.5195 3.8281-8.5195 8.5508v0.007813c0 4.7227 3.8281 8.5508 8.5508 8.5508h52.699c4.7227 0 8.5508-3.8281 8.5508-8.5508s-3.8281-8.5508-8.5508-8.5508zm107.05-119.67h-0.035156c-18.969 0-34.336 15.375-34.336 34.34v81.367c0 18.961 15.375 34.336 34.34 34.344l162.5 0.007812c18.965-0.015625 34.336-15.391 34.336-34.352v-16.254l8.4531-0.011719c4.7188 0 8.5469-3.8281 8.5469-8.5508v-31.727c0-4.7188-3.8281-8.5469-8.5469-8.5508l-8.4531-0.003906v-16.27c0-18.965-15.371-34.34-34.336-34.34zm-40.676 189.2h-0.027343c-4.7227 0-8.5469 3.8281-8.5469 8.5508 0 4.7227 3.8281 8.5508 8.5508 8.5508h15.395c4.7227 0 8.5508-3.8281 8.5508-8.5508 0-4.7188-3.8281-8.5508-8.5508-8.5508zm62.18 0.003907v0.003906c-4.7227-0.003906-8.5508 3.8242-8.5508 8.5469 0.003906 4.7227 3.832 8.5508 8.5508 8.5508l101.23-0.007812c4.7227 0 8.5508-3.8281 8.5508-8.5508s-3.8281-8.5508-8.5508-8.5508zm94.594-292.02h0.007812c98.223 0 177.84 79.625 177.84 177.84 0 41.312-14.086 79.336-37.715 109.53-2.0469 2.6133-4.168 5.1641-6.3477 7.6602-1.3086 1.4961-2.0938 3.4609-2.0938 5.6016v0.007812c0 2.3203 0.92578 4.4258 2.4297 5.9688l4.3984 5.1562-60.352 11.242 20.441-57.891 6.8516 8.0391c1.5664 1.8047 3.8867 2.9531 6.4727 2.9531 3.0039 0 5.6445-1.5352 7.168-3.8789l0.003906-0.007813c1.1641-1.8125 2.2969-3.625 3.3945-5.457l0.007813-0.019531c15.609-25.934 24.496-56.402 24.496-88.902 0-95.758-77.629-173.39-173.39-173.39-5.6016 0-11.137 0.26562-16.602 0.78516 13.766-3.4297 28.156-5.2422 42.977-5.2422zm0.011719-17.105h-0.011719c-68.719 0-128.24 34.465-162.96 88.141l-0.074219 0.11719c-0.61719 0.95703-0.73438 2.2539-0.73438 3.5 0 4.8047 3.8906 8.6953 8.6875 8.6953 2.9531 0 5.4141-1.582 7.1289-3.7227 28.516-35.539 72.469-58.066 121.57-58.066 86.312 0 156.29 69.973 156.29 156.29 0 27.23-6.9648 52.836-19.207 75.125l-8.3398-9.7422c-0.98047-1.332-2.3555-2.3945-4.0312-2.9844-0.94141-0.33594-1.9023-0.49219-2.8477-0.49219-3.5234 0-6.8242 2.1953-8.0625 5.707l-30.309 85.828c-1.5742 4.4531 0.76562 9.3398 5.2148 10.91 0.94141 0.33203 1.9023 0.49219 2.8477 0.49219 0.60156 0 1.1914-0.0625 1.7695-0.1875l88.625-16.508c1.5625-0.28906 3.2969-0.84375 4.6641-2.0117 0.13281-0.11328 0.21875-0.21094 0.34375-0.33203l0.011718-0.011719c2.0078-1.9336 3.0391-4.8047 2.4883-7.7461-0.32422-1.7422-1.2422-3.1836-2.3125-4.4336l-9.3125-10.895c27.211-33.488 43.504-76.199 43.504-122.72 0-107.66-87.273-194.95-194.94-194.95z"/>
</svg>
