<svg xmlns="http://www.w3.org/2000/svg" width="50" height="52" viewBox="0 0 50 52">
  <defs>
    <style>
      .cls-1 {
        fill: #2673f8;
        fill-rule: evenodd;
      }
    </style>
  </defs>
  <path class="cls-1" d="M376.665,1525.99a17.841,17.841,0,0,0-12.228,5.5c-8.649,8.97-8.483,25.88-8.435,27.75v17.63a1.134,1.134,0,0,0,1.128,1.14h17.31a1.134,1.134,0,0,0,1.128-1.14v-17.41a1.134,1.134,0,0,0-1.128-1.14h-8.846c0-1.45.176-14.36,5.745-20.11a8.062,8.062,0,0,1,5.456-2.55,1.132,1.132,0,0,0,1.048-1.13v-7.4a1.132,1.132,0,0,0-.348-0.82A1.079,1.079,0,0,0,376.665,1525.99Zm28.987,0.32a1.069,1.069,0,0,0-.83-0.32,17.8,17.8,0,0,0-12.228,5.5c-8.649,8.97-8.483,25.88-8.436,27.75v17.63a1.134,1.134,0,0,0,1.128,1.14H402.6a1.134,1.134,0,0,0,1.128-1.14v-17.41a1.134,1.134,0,0,0-1.128-1.14h-8.845c0-1.45.177-14.36,5.744-20.11a8.068,8.068,0,0,1,5.457-2.55,1.132,1.132,0,0,0,1.048-1.13v-7.4A1.132,1.132,0,0,0,405.652,1526.31Z" transform="translate(-356 -1526)"/>
</svg>
