<?xml version="1.0" encoding="UTF-8"?>
<svg version="1.1" viewBox="0 0 752 752" xmlns="http://www.w3.org/2000/svg">
 <g>
  <path d="m376 590.59c-53.977 0.03125-105.98-20.297-145.64-56.918-39.652-36.625-64.039-86.852-68.289-140.66s11.945-107.25 45.355-149.64l9.5312 9.5312v-0.003906c1.3867 1.3906 3.2695 2.168 5.2305 2.168 0.66797 0.003906 1.332-0.085937 1.9766-0.26562 2.5586-0.71875 4.5391-2.7578 5.1797-5.3398l10.5-41.863c0.62891-2.5234-0.11328-5.1914-1.9531-7.0273-1.8398-1.8359-4.5078-2.5742-7.0312-1.9414l-41.859 10.465c-2.5859 0.64844-4.6211 2.6367-5.332 5.2031-0.71094 2.5703 0.015625 5.3203 1.8984 7.207l11.359 11.352c-33.859 42.344-51.621 95.312-50.133 149.51 1.4922 54.195 22.137 106.11 58.273 146.53 36.133 40.418 85.422 66.727 139.11 74.254s108.32-4.2148 154.17-33.137l-7.918-12.504v-0.003907c-34.234 21.66-73.926 33.137-114.44 33.086zm-153.51-374.62-4.3086 17.211-12.902-12.906z"/>
  <path d="m376 146.61c-43.312-0.050781-85.75 12.219-122.35 35.379l7.918 12.504c42.777-27.004 93.727-38.023 143.84-31.105 50.117 6.9219 96.176 31.328 130.04 68.918 33.863 37.586 53.348 85.934 55.02 136.5 1.668 50.566-14.586 100.09-45.895 139.83l-9.5312-9.5312c-1.8867-1.8867-4.6406-2.6133-7.2109-1.9023-2.5742 0.71484-4.5625 2.7539-5.207 5.3438l-10.469 41.859c-0.62891 2.5234 0.10938 5.1875 1.9492 7.0273 1.8398 1.8359 4.5039 2.5742 7.0273 1.9414l41.859-10.465v0.003906c2.5859-0.64844 4.6211-2.6367 5.332-5.207 0.71094-2.5664-0.015625-5.3203-1.8984-7.2031l-11.352-11.352c36.195-45.195 53.945-102.41 49.684-160.16-4.2617-57.746-30.215-111.74-72.648-151.14-42.434-39.395-98.207-61.273-156.11-61.242zm153.52 389.42 4.3047-17.219 12.906 12.914z"/>
  <path d="m506.19 391.82-8.0938-2.582c0.96484-8.7969 0.96484-17.676 0-26.477l8.2422-2.6328c6.1211-2.125 9.4453-8.7344 7.5039-14.918l-8.25-25.203c-0.94531-3.0039-3.0508-5.5078-5.8438-6.957-2.7969-1.4492-6.0547-1.7266-9.0547-0.76953l-8.1406 2.6406c-1.7773-3.1094-3.7578-6.1211-5.8398-9.0781l16.203-21.598c1.6797-2.2422 1.9492-5.2422 0.69922-7.75-1.2539-2.5078-3.8164-4.0898-6.6211-4.0898h-55.207l24.973-56.191v-0.003906c1.0156-2.2891 0.80859-4.9375-0.55859-7.0352-1.3633-2.1016-3.6992-3.3672-6.2031-3.3672h-51.801c-3.2461 0-6.1172 2.1172-7.0742 5.2227l-7.4961 24.375h-20.945c-6.5391 0-11.84 5.3008-11.84 11.84v8.5117c-8.6562 1.8203-17.094 4.5664-25.16 8.1914l-5.0156-6.8281v-0.003906c-1.8164-2.5781-4.5938-4.3164-7.7031-4.8242-3.1133-0.50781-6.2969 0.26172-8.8359 2.1328l-21.629 15.711v-0.003907c-5.2266 3.8516-6.375 11.195-2.5781 16.457l5.0234 6.9336h0.003907c-5.9453 6.5469-11.156 13.723-15.539 21.402l-8.1055-2.6523c-6.2031-1.9688-12.832 1.4414-14.844 7.6289l-8.3008 25.344v0.003906c-1.918 6.2344 1.4922 12.863 7.6797 14.93l8.082 2.582c-0.96875 8.8008-0.96875 17.68 0 26.477l-8.2422 2.6328v0.003906c-6.125 2.125-9.4492 8.7344-7.5039 14.918l8.25 25.203c0.94531 3 3.043 5.5 5.8359 6.9492 2.793 1.4492 6.0469 1.7266 9.043 0.77344l8.1406-2.6406c4.3828 7.6797 9.5938 14.855 15.539 21.398l-5.0078 6.9102v0.003906c-3.8242 5.2734-2.668 12.648 2.5898 16.5l21.461 15.539h-0.003906c2.5156 1.9219 5.7031 2.7461 8.832 2.2852 3.1328-0.46484 5.9453-2.1719 7.7969-4.7422l5.0898-6.9414c8.0703 3.6211 16.504 6.3672 25.16 8.1914v8.5352c0 6.5156 5.2656 11.805 11.781 11.84h26.641-0.003907c3.1406 0 6.1523-1.25 8.3711-3.4688 2.2227-2.2227 3.4688-5.2344 3.4688-8.3711v-8.5117c8.6562-1.8203 17.09-4.5664 25.16-8.1914l5.0156 6.8281v0.003907c1.8516 2.6055 4.6758 4.3555 7.8359 4.8438 3.0742 0.47266 6.2031-0.30469 8.7031-2.1523l21.629-15.711c5.2266-3.8516 6.375-11.191 2.5742-16.457l-5.0234-6.9336c5.9453-6.543 11.156-13.719 15.539-21.398l8.1836 2.6484c6.2031 1.9727 12.836-1.4375 14.844-7.6289l8.3008-25.344h0.003906c1.9141-6.25-1.5234-12.887-7.7344-14.934zm-102.52-171.21h34.941l-24.973 56.191c-1.0156 2.2891-0.80859 4.9375 0.55859 7.0391 1.3633 2.0977 3.6992 3.3672 6.2031 3.3633h51.797l-52.539 70.074 15.184-45.539 0.003906 0.003907c0.75391-2.2617 0.37109-4.7461-1.0234-6.6758-1.3984-1.9297-3.6367-3.0703-6.0195-3.0625h-49.18zm-40.984 93.191c1.3867 1.8789 3.582 2.9922 5.918 3.0039h48.934l-26.355 79.059c-1.1523 3.4414 0.36719 7.2109 3.5859 8.8984 3.2148 1.6836 7.1797 0.78516 9.3555-2.1211l40.535-54.02c7.6094 19.023 6.9961 40.348-1.6953 58.898-8.6953 18.547-24.691 32.664-44.18 38.984-19.484 6.3203-40.723 4.2773-58.648-5.6406-17.926-9.918-30.938-26.824-35.938-46.691s-1.5391-40.918 9.5586-58.137c11.098-17.223 28.836-29.07 48.996-32.727l-1.2227 3.957c-0.66797 2.2383-0.23828 4.6602 1.1562 6.5352zm129.76 110.92-7.5938-2.4648c-5.4297-1.7617-11.34 0.60156-14.059 5.6172-4.3945 8.0586-9.8086 15.523-16.109 22.199-3.9141 4.1562-4.3359 10.504-1.0078 15.145l4.6836 6.4609-16.754 12.164-4.6758-6.3711c-3.3242-4.6523-9.4961-6.2656-14.672-3.832-8.2773 3.918-17.012 6.7773-26.004 8.5078-5.6992 0.95312-9.8828 5.8789-9.8945 11.656v7.9922h-20.719v-7.9922c0.019531-5.7266-4.082-10.637-9.7227-11.633-9.0586-1.7383-17.859-4.6172-26.195-8.5703-5.1211-2.3633-11.199-0.78516-14.523 3.7695l-4.7422 6.4766-16.762-12.168 4.7266-6.5195c3.293-4.625 2.8594-10.934-1.0352-15.066-6.2969-6.6758-11.707-14.137-16.094-22.199-2.6758-5.0703-8.6133-7.4688-14.059-5.6836l-7.6523 2.4805-6.4141-19.676 7.6211-2.4336c5.4414-1.8281 8.8438-7.2383 8.1367-12.938-0.63281-4.5195-0.95312-9.0781-0.96094-13.645-0.011719-4.6406 0.29688-9.2812 0.91797-13.879 0.62109-5.625-2.7695-10.914-8.1406-12.699l-7.5742-2.4336 6.4531-19.707 7.5938 2.4648h-0.003906c5.4297 1.7852 11.355-0.58203 14.059-5.6172 4.3945-8.0625 9.8086-15.523 16.109-22.199 3.9141-4.1602 4.3359-10.508 1.0078-15.148l-4.6836-6.4609 16.754-12.164 4.6758 6.3711c3.3203 4.6562 9.4961 6.2695 14.672 3.8359 8.2773-3.918 17.012-6.7773 26.004-8.5117 5.6758-0.97266 9.8281-5.8945 9.832-11.652v-7.9922h13.438l-11.551 37.516c-25.531 2.3516-48.812 15.586-63.895 36.324-15.078 20.738-20.492 46.969-14.855 71.984 5.6328 25.012 21.773 46.387 44.289 58.656 22.512 12.266 49.223 14.242 73.297 5.418 24.074-8.8281 43.18-27.594 52.43-51.508 9.2539-23.914 7.7539-50.652-4.1094-73.383l12.625-16.828c1.1914 1.8789 2.3594 3.7656 3.4023 5.6914 2.668 5.0742 8.6133 7.4766 14.059 5.6836l7.6523-2.4805 6.4531 19.707-7.6211 2.4336h-0.003906c-5.4258 1.8398-8.8125 7.2461-8.1016 12.934 0.60937 4.5234 0.90625 9.082 0.88672 13.645 0.015625 4.6445-0.29297 9.2812-0.91406 13.883-0.62109 5.6211 2.7695 10.914 8.1367 12.699l7.6055 2.4336z"/>
 </g>
</svg>
