<svg xmlns="http://www.w3.org/2000/svg" width="2130.781" height="442.656" viewBox="0 0 2130.781 442.656">
  <defs>
    <style>
      .cls-1 {
        fill: #2673f8;
      }

      .cls-1, .cls-2 {
        fill-rule: evenodd;
      }

      .cls-2 {
        fill: #091c3a;
      }
    </style>
  </defs>
  <path id="EV_" data-name="EV " class="cls-1" d="M195.756,74.367V14.527H0.22v311.08H195.756v-60.28H76.212v-69.08H182.424v-56.76H76.212V74.367H195.756Zm29.324-59.84,108.878,311.08h98.213L541.493,14.527H460.168l-76.881,234.08L306.406,14.527H225.08Z" transform="translate(-0.219)"/>
  <path id="_." data-name="." class="cls-1" d="M2066.56,322.814q11.175,8.59,27.02,8.594,15.4,0,26.58-8.594t11.18-27.929q0-20.193-11.18-28.36t-26.58-8.164q-15.84,0-27.02,8.164t-11.17,28.36Q2055.39,314.22,2066.56,322.814Z" transform="translate(-0.219)"/>
  <path id="Spark" class="cls-2" d="M902.975,238.047q0-30.36-13.777-49.28t-32.885-28.82q-19.113-9.9-49.329-20.02-20.894-7.476-32-12.32a55.791,55.791,0,0,1-18.443-12.54,26.108,26.108,0,0,1-7.333-18.7q0-13.633,8.222-20.68t21.553-7.04q15.551,0,24.664,9.02t11.333,24.42H897.2q-4-43.116-34.886-67.76T778.987,9.687q-32.445,0-57.55,10.78t-39.329,31.02q-14.227,20.243-14.221,47.96,0,29.928,13.554,48.62,13.551,18.708,32.442,28.16,18.883,9.468,48.661,19.58,20.436,7.044,32,12.1a61.1,61.1,0,0,1,19.332,12.98q7.77,7.92,7.777,19.8,0,13.2-8.444,21.12t-23.109,7.92q-16.895,0-27.775-10.12t-12.665-27.72H668.776q3.1,45.768,37.33,71.28t87.1,25.52q35.1,0,59.772-12.32t37.329-33a85.105,85.105,0,0,0,12.666-45.32h0ZM1108.73,77.007q-28.44,0-48.88,12.76a74.322,74.322,0,0,0-29.78,34.76V80.087H954.079v362.56h75.991V281.167a74.251,74.251,0,0,0,29.78,34.76q20.43,12.768,48.88,12.76,30.66,0,54.88-15.18t38.22-43.78q14-28.6,14-66.88,0-38.712-14-67.1t-38.22-43.56q-24.225-15.18-54.88-15.18h0Zm-24.44,66q24.435,0,39.33,15.84t14.89,44q0,28.164-14.89,44t-39.33,15.84q-24,0-39.33-16.28t-15.33-43.56q0-27.72,15.33-43.78t39.33-16.06h0Zm274.19-66q-30.66,0-54.88,15.18t-38.22,43.56q-14,28.38-14,67.1,0,38.28,14,66.88t38.22,43.78q24.21,15.18,54.88,15.18,28.44,0,48.88-12.76a76.9,76.9,0,0,0,30.22-34.76v44.44h75.55V80.087h-75.55v44.44a76.972,76.972,0,0,0-30.22-34.76q-20.445-12.757-48.88-12.76h0Zm24.44,66q24,0,39.33,16.06t15.33,43.78q0,27.288-15.33,43.56t-39.33,16.28q-24.435,0-39.33-15.84t-14.88-44q0-28.152,14.88-44,14.9-15.84,39.33-15.84h0Zm267.53-16.72v-46.2h-75.99v245.52h75.99V213.847q0-30.36,16.66-43.12t46.89-12.76h21.77V77.447a94.293,94.293,0,0,0-48.66,13.2,107.334,107.334,0,0,0-36.66,35.64h0Zm367.96,199.32L1916.2,202.847l99.99-122.76h-89.33l-74.21,98.56V0.007h-75.99v325.6h75.99V221.327l74.21,104.28h91.55Z" transform="translate(-0.219)"/>
</svg>
